<svg width="30" height="71" viewBox="0 0 30 71" fill="none" xmlns="http://www.w3.org/2000/svg">
<path d="M0.6 0.999998V29H12.24V25H5V0.999998H0.6ZM13.7947 7.72V22.28C13.7947 26.76 16.1547 29.32 20.4747 29.32C24.7947 29.32 27.1547 26.76 27.1547 22.28V7.72C27.1547 3.24 24.7947 0.68 20.4747 0.68C16.1547 0.68 13.7947 3.24 13.7947 7.72ZM18.1947 22.56V7.44C18.1947 5.44 19.0747 4.68 20.4747 4.68C21.8747 4.68 22.7547 5.44 22.7547 7.44V22.56C22.7547 24.56 21.8747 25.32 20.4747 25.32C19.0747 25.32 18.1947 24.56 18.1947 22.56ZM7.2 54.4V58.4H9.2V63.56C9.2 65.56 8.32 66.28 6.92 66.28C5.52 66.28 4.64 65.56 4.64 63.56V48.44C4.64 46.44 5.52 45.68 6.92 45.68C8.32 45.68 9.2 46.44 9.2 48.44V51.44H13.36V48.72C13.36 44.24 11.12 41.68 6.8 41.68C2.48 41.68 0.24 44.24 0.24 48.72V63.28C0.24 67.76 2.48 70.32 6.8 70.32C11.12 70.32 13.36 67.76 13.36 63.28V54.4H7.2ZM15.8259 48.72V63.28C15.8259 67.76 18.1859 70.32 22.5059 70.32C26.8259 70.32 29.1859 67.76 29.1859 63.28V48.72C29.1859 44.24 26.8259 41.68 22.5059 41.68C18.1859 41.68 15.8259 44.24 15.8259 48.72ZM20.2259 63.56V48.44C20.2259 46.44 21.1059 45.68 22.5059 45.68C23.9059 45.68 24.7859 46.44 24.7859 48.44V63.56C24.7859 65.56 23.9059 66.32 22.5059 66.32C21.1059 66.32 20.2259 65.56 20.2259 63.56Z" fill="white"/>
</svg>
